REM DIRINDEX 1\3,1\4,1\5,1\6,1\2\7,1\2\8,1\2\9,1\10
REM DIRNAME folder01,folder02,folder03,folder04,folder05,folder06,folder07,folder08,folder09,folder10
TITLE ""
FILE "1-32 Level 2-266-278.mp3" MP3
  TRACK 01 AUDIO
    TITLE "0:"
    INDEX 01 00:00:00
  TRACK 02 AUDIO
    TITLE "7:cjc056_0911"
    INDEX 01 00:00:05
  TRACK 03 AUDIO
    TITLE "0:"
    INDEX 01 00:01:11
  TRACK 04 AUDIO
    TITLE "8:cjc056_0912"
    INDEX 01 00:01:21
  TRACK 05 AUDIO
    TITLE "0:"
    INDEX 01 00:02:45
  TRACK 06 AUDIO
    TITLE "9:cjc056_0913"
    INDEX 01 00:02:59
  TRACK 07 AUDIO
    TITLE "0:"
    INDEX 01 00:04:31
  TRACK 08 AUDIO
    TITLE "8:cjc056_0914"
    INDEX 01 00:04:54
  TRACK 09 AUDIO
    TITLE "0:"
    INDEX 01 00:06:18
  TRACK 10 AUDIO
    TITLE "9:cjc056_0915"
    INDEX 01 00:06:31
  TRACK 11 AUDIO
    TITLE "0:"
    INDEX 01 00:07:64
  TRACK 12 AUDIO
    TITLE "7:cjc056_0916"
    INDEX 01 00:08:40
  TRACK 13 AUDIO
    TITLE "0:"
    INDEX 01 00:09:40
  TRACK 14 AUDIO
    TITLE "8:cjc056_0917"
    INDEX 01 00:09:53
  TRACK 15 AUDIO
    TITLE "0:"
    INDEX 01 00:10:74
  TRACK 16 AUDIO
    TITLE "9:cjc056_0918"
    INDEX 01 00:11:13
  TRACK 17 AUDIO
    TITLE "0:"
    INDEX 01 00:12:44
  TRACK 18 AUDIO
    TITLE "7:cjc056_0919"
    INDEX 01 00:13:22
  TRACK 19 AUDIO
    TITLE "0:"
    INDEX 01 00:14:37
  TRACK 20 AUDIO
    TITLE "8:cjc056_0920"
    INDEX 01 00:14:53
  TRACK 21 AUDIO
    TITLE "0:"
    INDEX 01 00:16:04
  TRACK 22 AUDIO
    TITLE "9:cjc056_0921"
    INDEX 01 00:16:16
  TRACK 23 AUDIO
    TITLE "0:"
    INDEX 01 00:18:35
  TRACK 24 AUDIO
    TITLE "7:cjc056_0922"
    INDEX 01 00:19:15
  TRACK 25 AUDIO
    TITLE "0:"
    INDEX 01 00:20:30
  TRACK 26 AUDIO
    TITLE "8:cjc056_0923"
    INDEX 01 00:20:43
  TRACK 27 AUDIO
    TITLE "0:"
    INDEX 01 00:21:74
  TRACK 28 AUDIO
    TITLE "9:cjc056_0924"
    INDEX 01 00:22:13
  TRACK 29 AUDIO
    TITLE "0:"
    INDEX 01 00:24:04
  TRACK 30 AUDIO
    TITLE "7:cjc056_0925"
    INDEX 01 00:24:59
  TRACK 31 AUDIO
    TITLE "0:"
    INDEX 01 00:25:60
  TRACK 32 AUDIO
    TITLE "8:cjc056_0926"
    INDEX 01 00:25:74
  TRACK 33 AUDIO
    TITLE "0:"
    INDEX 01 00:27:24
  TRACK 34 AUDIO
    TITLE "9:cjc056_0927"
    INDEX 01 00:27:39
  TRACK 35 AUDIO
    TITLE "0:"
    INDEX 01 00:29:34
  TRACK 36 AUDIO
    TITLE "7:cjc056_0928"
    INDEX 01 00:30:10
  TRACK 37 AUDIO
    TITLE "0:"
    INDEX 01 00:31:22
  TRACK 38 AUDIO
    TITLE "8:cjc056_0929"
    INDEX 01 00:31:35
  TRACK 39 AUDIO
    TITLE "0:"
    INDEX 01 00:33:01
  TRACK 40 AUDIO
    TITLE "9:cjc056_0930"
    INDEX 01 00:33:13
  TRACK 41 AUDIO
    TITLE "0:"
    INDEX 01 00:34:65
  TRACK 42 AUDIO
    TITLE "7:cjc056_0931"
    INDEX 01 00:35:43
  TRACK 43 AUDIO
    TITLE "0:"
    INDEX 01 00:36:27
  TRACK 44 AUDIO
    TITLE "8:cjc056_0932"
    INDEX 01 00:36:40
  TRACK 45 AUDIO
    TITLE "0:"
    INDEX 01 00:37:65
  TRACK 46 AUDIO
    TITLE "9:cjc056_0933"
    INDEX 01 00:38:04
  TRACK 47 AUDIO
    TITLE "0:"
    INDEX 01 00:39:29
  TRACK 48 AUDIO
    TITLE "7:cjc056_0934"
    INDEX 01 00:40:09
  TRACK 49 AUDIO
    TITLE "0:"
    INDEX 01 00:41:06
  TRACK 50 AUDIO
    TITLE "8:cjc056_0935"
    INDEX 01 00:41:20
  TRACK 51 AUDIO
    TITLE "0:"
    INDEX 01 00:42:41
  TRACK 52 AUDIO
    TITLE "9:cjc056_0936"
    INDEX 01 00:42:57
  TRACK 53 AUDIO
    TITLE "0:"
    INDEX 01 00:44:24
  TRACK 54 AUDIO
    TITLE "7:cjc056_0937"
    INDEX 01 00:45:00
  TRACK 55 AUDIO
    TITLE "0:"
    INDEX 01 00:45:69
  TRACK 56 AUDIO
    TITLE "8:cjc056_0938"
    INDEX 01 00:46:11
  TRACK 57 AUDIO
    TITLE "0:"
    INDEX 01 00:47:52
  TRACK 58 AUDIO
    TITLE "9:cjc056_0939"
    INDEX 01 00:47:64
  TRACK 59 AUDIO
    TITLE "0:"
    INDEX 01 00:49:31
  TRACK 60 AUDIO
    TITLE "7:cjc056_0940"
    INDEX 01 00:50:09
  TRACK 61 AUDIO
    TITLE "0:"
    INDEX 01 00:51:07
  TRACK 62 AUDIO
    TITLE "8:cjc056_0941"
    INDEX 01 00:51:16
  TRACK 63 AUDIO
    TITLE "0:"
    INDEX 01 00:52:47
  TRACK 64 AUDIO
    TITLE "9:cjc056_0942"
    INDEX 01 00:52:61
  TRACK 65 AUDIO
    TITLE "0:"
    INDEX 01 00:54:25
  TRACK 66 AUDIO
    TITLE "7:cjc056_0943"
    INDEX 01 00:55:04
  TRACK 67 AUDIO
    TITLE "0:"
    INDEX 01 00:56:18
  TRACK 68 AUDIO
    TITLE "8:cjc056_0944"
    INDEX 01 00:56:31
  TRACK 69 AUDIO
    TITLE "0:"
    INDEX 01 00:57:48
  TRACK 70 AUDIO
    TITLE "9:cjc056_0945"
    INDEX 01 00:57:60
  TRACK 71 AUDIO
    TITLE "0:"
    INDEX 01 00:59:51
  TRACK 72 AUDIO
    TITLE "7:cjc056_0946"
    INDEX 01 01:00:29
  TRACK 73 AUDIO
    TITLE "0:"
    INDEX 01 01:01:33
  TRACK 74 AUDIO
    TITLE "8:cjc056_0947"
    INDEX 01 01:01:46
  TRACK 75 AUDIO
    TITLE "0:"
    INDEX 01 01:02:48
  TRACK 76 AUDIO
    TITLE "9:cjc056_0948"
    INDEX 01 01:02:61
  TRACK 77 AUDIO
    TITLE "0:"
    INDEX 01 01:04:50
  TRACK 78 AUDIO
    TITLE "7:cjc056_0949"
    INDEX 01 01:05:28
  TRACK 79 AUDIO
    TITLE "0:"
    INDEX 01 01:06:28
  TRACK 80 AUDIO
    TITLE "8:cjc056_0950"
    INDEX 01 01:06:42
  TRACK 81 AUDIO
    TITLE "0:"
    INDEX 01 01:08:54
  TRACK 82 AUDIO
    TITLE "9:cjc056_0951"
    INDEX 01 01:08:66
  TRACK 83 AUDIO
    TITLE "0:"
    INDEX 01 01:10:65
